<?xml version="1.0" encoding="utf-8"?>

<!DOCTYPE svg PUBLIC "-//W3C//DTD SVG 1.1//EN" "http://www.w3.org/Graphics/SVG/1.1/DTD/svg11.dtd">
<!-- Uploaded to: SVG Repo, www.svgrepo.com, Generator: SVG Repo Mixer Tools -->
<svg height="800px" width="800px" version="1.1" id="_x32_" xmlns="http://www.w3.org/2000/svg" xmlns:xlink="http://www.w3.org/1999/xlink" 
	 viewBox="0 0 512 512"  xml:space="preserve">
<style type="text/css">
	.st0{fill:#000000;}
</style>
<g>
	<path class="st0" d="M464.547,494.02c0,0-17.52-112.684-24.365-159.737c-7.901-54.392-40.194-118.507-103.543-135.119
		c16.591-21.126,26.674-48.808,26.674-79.136C363.313,53.743,315.26,0,255.995,0c-59.25,0-107.304,53.743-107.304,120.028
		c0,30.329,10.084,58.011,26.675,79.136c-63.349,16.612-95.642,80.727-103.544,135.119C64.979,381.336,47.459,494.02,47.459,494.02
		c-0.479,3.119,0.394,6.295,2.408,8.781c2,2.486,4.986,4.064,8.224,4.366l52.208,4.782c6.31,0.578,11.985-3.746,12.887-9.824
		l25.716-173.786c0.057-0.366,0.409-0.634,0.789-0.598c0.394,0.035,0.69,0.345,0.69,0.712V488.33c0,11.929,9.971,21.59,22.266,21.59
		h166.708c12.295,0,22.266-9.662,22.266-21.59V328.452c0-0.366,0.296-0.676,0.676-0.712c0.394-0.035,0.746,0.233,0.803,0.598
		l25.716,173.786c0.902,6.078,6.564,10.401,12.887,9.824l52.208-4.782c3.239-0.302,6.211-1.88,8.225-4.366
		C464.152,500.315,465.011,497.139,464.547,494.02z M255.995,186.615c-28.59,0-51.757-20.554-51.757-52.532
		c0-31.991,23.168-57.912,51.757-57.912s51.772,25.921,51.772,57.912C307.767,166.061,284.585,186.615,255.995,186.615z"/>
</g>
</svg>