<!DOCTYPE svg PUBLIC "-//W3C//DTD SVG 1.1//EN" "http://www.w3.org/Graphics/SVG/1.1/DTD/svg11.dtd">

<!-- Uploaded to: SVG Repo, www.svgrepo.com, Transformed by: SVG Repo Mixer Tools -->
<svg fill="#000000" height="800px" width="800px" version="1.1" id="Layer_1" xmlns="http://www.w3.org/2000/svg" xmlns:xlink="http://www.w3.org/1999/xlink" viewBox="0 0 512 512" xml:space="preserve">

<g id="SVGRepo_bgCarrier" strokeWidth="0"/>

<g id="SVGRepo_tracerCarrier" strokeLinecap="round" strokeLinejoin="round"/>

<g id="SVGRepo_iconCarrier"> <g> <g> <path d="M360.852,93.733h-11.38V56.436c0-7.352-5.959-13.311-13.311-13.311H13.311C5.959,43.125,0,49.084,0,56.436v364.161 c0,26.664,21.615,48.279,48.279,48.279h252.914c26.664,0,48.279-21.615,48.279-48.279v-24.567h11.38 c83.343,0,151.148-67.805,151.148-151.15S444.195,93.733,360.852,93.733z M360.852,356.096h-11.38V133.667h11.38 c61.324,0,111.214,49.891,111.214,111.216S422.175,356.096,360.852,356.096z"/> </g> </g> </g>

</svg>